<svg width="31" height="31" viewBox="0 0 31 31" fill="none" xmlns="http://www.w3.org/2000/svg">
<g clip-path="url(#clip0_135_25)">
<path d="M21 6.5C21 9.53757 18.5376 12 15.5 12C12.4624 12 10 9.53757 10 6.5C10 3.46243 12.4624 1 15.5 1C18.5376 1 21 3.46243 21 6.5Z" stroke="#3D3D3D" stroke-width="1.8"/>
<path d="M29.3931 19.6562C27.4902 25.7337 21.9754 30.0999 15.5002 30.0999C9.02499 30.0999 3.5102 25.7337 1.60732 19.6562C1.30006 18.6749 1.56645 17.7706 2.19494 17.0801C2.83781 16.3738 3.86153 15.8999 5.00019 15.8999H26.0002C27.1389 15.8999 28.1626 16.3738 28.8054 17.0801C29.4339 17.7706 29.7003 18.6749 29.3931 19.6562Z" stroke="#3D3D3D" stroke-width="1.8"/>
</g>
<defs>
<clipPath id="clip0_135_25">
<rect width="31" height="31" fill="white"/>
</clipPath>
</defs>
</svg>
