<svg width="29" height="30" viewBox="0 0 29 30" fill="none" xmlns="http://www.w3.org/2000/svg">
<g clip-path="url(#clip0_135_10)">
<path d="M24.0999 12.4999C24.0999 18.9064 18.9064 24.0999 12.4999 24.0999C6.0934 24.0999 0.899902 18.9064 0.899902 12.4999C0.899902 6.0934 6.0934 0.899902 12.4999 0.899902C18.9064 0.899902 24.0999 6.0934 24.0999 12.4999Z" stroke="#3D3D3D" stroke-width="1.8"/>
<path d="M5 11C5 7.68629 7.68629 5 11 5" stroke="#3D3D3D" stroke-width="1.36" stroke-linecap="round" stroke-linejoin="round"/>
<path d="M28.1316 25.7175L22.4747 20.0607C21.8889 19.4749 20.9392 19.4749 20.3534 20.0607C19.7676 20.6464 19.7676 21.5962 20.3534 22.182L26.0103 27.8388C26.596 28.4246 27.5458 28.4246 28.1316 27.8388C28.7174 27.253 28.7174 26.3033 28.1316 25.7175Z" fill="#3D3D3D"/>
</g>
<defs>
<clipPath id="clip0_135_10">
<rect width="29" height="30" fill="white"/>
</clipPath>
</defs>
</svg>
